<svg width="42" height="50" viewBox="0 0 42 50" fill="none" xmlns="http://www.w3.org/2000/svg">
<g filter="url(#filter0_d_1_4714)">
<path d="M38 21C38 18.6837 36.0939 16.8 33.75 16.8H31.625V10.5C31.625 4.7103 26.8586 0 21 0C15.1414 0 10.375 4.7103 10.375 10.5V16.8H8.25C5.90612 16.8 4 18.6837 4 21V37.8C4 40.1163 5.90612 42 8.25 42H33.75C36.0939 42 38 40.1163 38 37.8V21ZM14.625 10.5C14.625 7.0266 17.4852 4.2 21 4.2C24.5147 4.2 27.375 7.0266 27.375 10.5V16.8H14.625V10.5Z" fill="#454545"/>
</g>
<defs>
<filter id="filter0_d_1_4714" x="0" y="0" width="42" height="50" filterUnits="userSpaceOnUse" color-interpolation-filters="sRGB">
<feFlood flood-opacity="0" result="BackgroundImageFix"/>
<feColorMatrix in="SourceAlpha" type="matrix" values="0 0 0 0 0 0 0 0 0 0 0 0 0 0 0 0 0 0 127 0" result="hardAlpha"/>
<feOffset dy="4"/>
<feGaussianBlur stdDeviation="2"/>
<feComposite in2="hardAlpha" operator="out"/>
<feColorMatrix type="matrix" values="0 0 0 0 0 0 0 0 0 0 0 0 0 0 0 0 0 0 0.25 0"/>
<feBlend mode="normal" in2="BackgroundImageFix" result="effect1_dropShadow_1_4714"/>
<feBlend mode="normal" in="SourceGraphic" in2="effect1_dropShadow_1_4714" result="shape"/>
</filter>
</defs>
</svg>
