<svg width="71" height="70" viewBox="0 0 71 70" fill="none" xmlns="http://www.w3.org/2000/svg">
<path d="M69.4542 35C69.4542 53.776 54.2062 69 35.3931 69C16.5801 69 1.33203 53.776 1.33203 35C1.33203 16.224 16.5801 1 35.3931 1C54.2062 1 69.4542 16.224 69.4542 35Z" stroke="#DFDFDF" stroke-width="2"/>
<path d="M27.3734 47.5821L35.3626 33.949C35.5889 33.5628 36.0895 33.4306 36.4827 33.6537C36.8745 33.8774 37.0086 34.3713 36.7823 34.7582L28.7938 48.3912C28.642 48.6505 28.3664 48.7952 28.0831 48.7952C27.944 48.7952 27.803 48.76 27.6737 48.6862C27.2813 48.4631 27.1473 47.9689 27.3739 47.5821H27.3734ZM27.3162 41.9055C26.7031 41.9055 26.0976 41.744 25.5656 41.439C24.7627 40.9856 24.1845 40.2459 23.941 39.3575C23.6962 38.464 23.8204 37.5286 24.291 36.7245C24.9088 35.6616 26.0694 34.9996 27.319 34.9996C27.9323 34.9996 28.5395 35.1603 29.074 35.4644C29.8848 35.9293 30.4628 36.6742 30.7039 37.5637C30.946 38.4558 30.8203 39.3859 30.3503 40.1829C29.7232 41.2458 28.561 41.9056 27.3161 41.9056L27.3162 41.9055ZM26.3854 40.0388C26.6723 40.2033 26.9923 40.2887 27.3162 40.2887C27.9792 40.2887 28.5986 39.9367 28.9327 39.3704C29.1817 38.9482 29.2485 38.4551 29.1198 37.9818C28.9913 37.5078 28.6834 37.1107 28.2526 36.8638C27.9691 36.7029 27.6455 36.6166 27.3193 36.6166C26.6561 36.6166 26.0405 36.9664 25.7132 37.5299C25.4608 37.9616 25.3944 38.4604 25.5245 38.936C25.6526 39.406 25.9589 39.7976 26.3854 40.0387L26.3854 40.0388ZM36.924 40.4751C37.5328 40.4751 38.1355 40.6336 38.6664 40.933C40.3387 41.884 40.917 43.9985 39.9587 45.6484C39.3339 46.7179 38.1695 47.3808 36.9195 47.3808C36.3104 47.3808 35.7077 47.2224 35.1769 46.9226C33.5077 45.9648 32.9294 43.8508 33.8846 42.2078C34.5097 41.1383 35.6736 40.4751 36.9241 40.4751L36.924 40.4751ZM35.9963 45.5221C36.2748 45.6794 36.5956 45.764 36.9192 45.764C37.5847 45.764 38.2044 45.4112 38.5365 44.8429C39.0455 43.9664 38.7378 42.8401 37.8488 42.3349C37.5678 42.1759 37.247 42.0919 36.9233 42.0919C36.2576 42.0919 35.6375 42.4447 35.3058 43.013C34.7987 43.8859 35.108 45.0127 35.9962 45.522L35.9963 45.5221ZM52.3437 39.3174C52.1783 39.9387 51.7775 40.4564 51.2155 40.7758L44.8811 44.3729V51.174C44.8811 52.7325 43.5905 54 42.0032 54H22.2333C20.6527 54 19.3672 52.7322 19.3672 51.174V32.5654C19.3672 32.3585 19.4471 32.16 19.5913 32.0104L27.0995 24.1756C26.5145 23.2678 26.1704 22.1947 26.1704 21.0416C26.1704 17.8075 28.8385 15.1765 32.1186 15.1765C35.3987 15.1765 38.0669 17.8078 38.0669 21.0416C38.0669 21.2557 38.0492 21.4769 38.0234 21.7006L43.5114 23.2692C43.715 23.3276 43.8875 23.4608 43.9935 23.6417L52.099 37.5048C52.4207 38.0572 52.5079 38.7012 52.3438 39.3176L52.3437 39.3174ZM28.2741 22.9506L30.569 20.5559C30.9855 20.126 31.52 19.9014 32.1185 19.9014C32.6395 19.9014 33.1071 20.0814 33.4935 20.4066L36.4174 21.2423C36.4208 21.1756 36.4272 21.1068 36.4272 21.0421C36.4272 18.6991 34.4941 16.7932 32.1185 16.7932C29.7428 16.7932 27.8097 18.6992 27.8097 21.0421C27.8097 21.7284 27.9796 22.3757 28.2741 22.9506L28.2741 22.9506ZM43.2417 32.8877L32.4762 21.6665C32.2788 21.4635 31.9602 21.4596 31.7571 21.6701L29.2929 24.2413C30.0501 24.8923 31.0373 25.2901 32.1186 25.2901C32.5715 25.2901 32.9384 25.6521 32.9384 26.0984C32.9384 26.5447 32.5713 26.9066 32.1186 26.9066C30.602 26.9066 29.2202 26.3395 28.1683 25.4149L21.0069 32.8872V51.1752C21.0069 51.8419 21.5574 52.3847 22.2336 52.3847H42.0034C42.686 52.3847 43.2418 51.8419 43.2418 51.1752L43.2417 32.8877ZM50.6774 38.3121L42.7377 24.7322L35.7622 22.7385L44.6575 32.011C44.8013 32.1612 44.8816 32.3597 44.8816 32.5665V42.5094L50.3979 39.3765C50.5771 39.2744 50.7047 39.1088 50.758 38.9083C50.8118 38.7056 50.7835 38.4938 50.6772 38.3127L50.6774 38.3121Z" fill="#454545"/>
</svg>
