<svg width="71" height="70" viewBox="0 0 71 70" fill="none" xmlns="http://www.w3.org/2000/svg">
<path d="M69.6886 35C69.6886 53.776 54.4405 69 35.6275 69C16.8144 69 1.56641 53.776 1.56641 35C1.56641 16.224 16.8144 1 35.6275 1C54.4405 1 69.6886 16.224 69.6886 35Z" stroke="#DFDFDF" stroke-width="2"/>
<path d="M35.095 53.7712C30.1365 48.8927 25.1967 43.3149 20.3804 38.2262C20.2395 38.0956 20.1518 37.9118 20.1518 37.7075C20.1518 37.5475 20.2049 37.3997 20.2961 37.2807L25.4428 29.0942C25.5201 28.957 25.6448 28.8435 25.805 28.7798C25.8927 28.7447 25.985 28.7286 26.0738 28.7286V28.7263H45.1748C45.4586 28.7263 45.7044 28.8862 45.8233 29.1201L50.9525 37.2808C51.0424 37.4002 51.0968 37.5477 51.0968 37.7077C51.0968 37.912 51.0091 38.0971 50.8682 38.2277L36.1536 53.7727C35.8813 54.061 35.4233 54.0771 35.13 53.8092L35.093 53.7727L35.095 53.7712ZM21.8997 29.093C22.2504 29.2826 22.3786 29.7152 22.186 30.0602C21.9934 30.4052 21.5536 30.5314 21.203 30.3419L17.9696 28.5867C17.619 28.3971 17.4907 27.9645 17.6834 27.6195C17.876 27.2745 18.3157 27.1483 18.6664 27.3378L21.8997 29.093ZM50.0473 30.3419C49.6966 30.5314 49.2569 30.4055 49.0643 30.0602C48.8716 29.7152 48.9996 29.2815 49.3506 29.093L52.5839 27.3378C52.9346 27.1483 53.3754 27.2742 53.5669 27.6195C53.7596 27.9645 53.6316 28.3982 53.2806 28.5867L50.0473 30.3419ZM29.1447 25.25C29.357 25.5826 29.2555 26.0221 28.9186 26.232C28.5805 26.4408 28.1337 26.341 27.9205 26.0084L24.8696 21.2378C24.656 20.9052 24.7588 20.4656 25.0958 20.2558C25.4338 20.0457 25.8806 20.1468 26.0938 20.4783L29.1447 25.2489V25.25ZM43.3291 26.0084C43.1169 26.341 42.6691 26.4411 42.331 26.232C41.993 26.0219 41.8913 25.5826 42.1049 25.25L45.1558 20.4794C45.368 20.1468 45.8158 20.0468 46.1538 20.2569C46.4919 20.4657 46.5936 20.9063 46.38 21.2389L43.3291 26.0095V26.0084ZM34.8993 18.714C34.8993 18.3202 35.2236 18 35.625 18C36.0253 18 36.3507 18.3192 36.3507 18.714V23.9944C36.3507 24.3882 36.0264 24.7084 35.625 24.7084C35.2247 24.7084 34.8993 24.3893 34.8993 23.9944V18.714ZM45.3135 31.0106L42.8695 36.9926H49.0729L45.3135 31.0106ZM41.6116 36.2534L44.1042 30.1521H37.057L41.6116 36.2534ZM27.147 30.1521L29.6396 36.2534L34.1954 30.1521H27.147ZM28.3818 36.991L25.9378 31.009L22.1783 36.991H28.3818ZM30.8848 36.991H40.3676L35.6261 30.64L30.8848 36.991ZM48.7088 38.4181H42.2928L37.6748 50.0753L48.7099 38.4181H48.7088ZM40.7399 38.4181H30.5125L35.6255 51.3242L40.7386 38.4181H40.7399ZM28.9602 38.4181H22.5442L33.5793 50.0753L28.9602 38.4181Z" fill="#454545"/>
</svg>
