<svg width="32" height="32" viewBox="0 0 32 32" fill="none" xmlns="http://www.w3.org/2000/svg">
<path d="M31.239 15.8419C31.239 24.3141 24.3587 31.1837 15.8695 31.1837C7.38034 31.1837 0.5 24.3141 0.5 15.8419C0.5 7.36961 7.38034 0.5 15.8695 0.5C24.3587 0.5 31.239 7.36961 31.239 15.8419Z" stroke="#DFDFDF"/>
<path d="M17.5958 13.5268C17.7751 13.2491 17.8645 12.9051 17.8645 12.5479C17.8645 11.5424 17.0711 10.7222 16.0985 10.7222C15.1259 10.7222 14.3325 11.5424 14.3325 12.5479C14.3325 12.905 14.4348 13.2358 14.6012 13.5268C13.4622 13.5929 12.5537 14.572 12.5537 15.7759V19.2552C12.5537 19.877 13.04 20.3797 13.6286 20.3797C13.7182 20.3797 13.795 20.3665 13.8718 20.3534V24.0047C13.8718 24.2427 14.0637 24.4411 14.294 24.4411C14.5243 24.4411 14.7162 24.2427 14.7162 24.0047V16.2656C14.7162 16.0275 14.5243 15.8291 14.294 15.8291C14.0637 15.8291 13.8718 16.0275 13.8718 16.2656V19.2686C13.8718 19.414 13.7566 19.5332 13.6286 19.5332C13.5006 19.5332 13.3855 19.4142 13.3855 19.2686L13.3857 15.7758C13.3857 15.0086 13.9871 14.3868 14.7165 14.3868H17.4806C18.2101 14.3868 18.8115 15.0086 18.8115 15.7758V19.2154C18.8115 19.3874 18.6835 19.5197 18.53 19.5197C18.3764 19.5197 18.2484 19.3874 18.2484 19.2154V16.2652C18.2484 16.0272 18.0565 15.8288 17.8262 15.8288C17.5959 15.8288 17.404 16.0272 17.404 16.2652V23.9911C17.404 24.2292 17.5959 24.4276 17.8262 24.4276C18.0565 24.4276 18.2484 24.2292 18.2484 23.9911L18.2483 20.3398C18.3379 20.3662 18.4402 20.3795 18.5298 20.3795C19.1441 20.3795 19.6431 19.8634 19.6431 19.2153V15.7756C19.6431 14.5719 18.7345 13.5928 17.5957 13.5267L17.5958 13.5268ZM15.1643 12.561C15.1643 12.0319 15.5865 11.5953 16.0985 11.5953C16.6103 11.5953 17.0327 12.0317 17.0327 12.561C17.0327 13.0902 16.6105 13.5268 16.0985 13.5268C15.5867 13.5268 15.1643 13.0903 15.1643 12.561Z" fill="#454545"/>
<path d="M14.1936 10.338C15.0127 10.338 15.6909 9.65014 15.6909 8.7901C15.6909 7.93025 15.0255 7.24219 14.1936 7.24219C13.3619 7.24219 12.6963 7.93006 12.6963 8.7901C12.6963 9.65014 13.3617 10.338 14.1936 10.338ZM14.1936 8.11555C14.5519 8.11555 14.859 8.41989 14.859 8.80342C14.859 9.18712 14.5646 9.4913 14.1936 9.4913C13.8224 9.4913 13.5282 9.18696 13.5282 8.80342C13.528 8.41991 13.8224 8.11555 14.1936 8.11555Z" fill="#454545"/>
<path d="M18.0051 10.338C18.8242 10.338 19.5024 9.65014 19.5024 8.7901C19.5024 7.93025 18.837 7.24219 18.0051 7.24219C17.1734 7.24219 16.5078 7.93006 16.5078 8.7901C16.508 9.65014 17.1862 10.338 18.0051 10.338ZM18.0051 8.11555C18.3634 8.11555 18.6705 8.41989 18.6705 8.80342C18.6705 9.18712 18.3761 9.4913 18.0051 9.4913C17.634 9.4913 17.3397 9.18696 17.3397 8.80342C17.3397 8.41991 17.6468 8.11555 18.0051 8.11555Z" fill="#454545"/>
<path d="M10.8 13.6718H11.9517C12.8092 13.6718 13.5129 12.9443 13.5129 12.0578C13.5129 11.1714 12.8092 10.4438 11.9517 10.4438C11.0942 10.4438 10.3905 11.1714 10.3905 12.0578C10.3905 12.3356 10.4544 12.6002 10.5824 12.825C9.64822 12.9441 8.91895 13.7642 8.91895 14.7697V17.6802C8.91895 18.236 9.35401 18.6857 9.89153 18.6857C9.94277 18.6857 9.98115 18.6724 10.0322 18.6724V21.0272C10.0322 21.2653 10.2241 21.4637 10.4544 21.4637C10.6847 21.4637 10.8766 21.2653 10.8766 21.0272V15.1667C10.8766 14.9286 10.6847 14.7302 10.4544 14.7302C10.2241 14.7302 10.0322 14.9286 10.0322 15.1667V17.6802C10.0322 17.7595 9.9683 17.8256 9.89153 17.8256C9.81477 17.8256 9.75086 17.7595 9.75086 17.6802V14.7696C9.76353 14.1613 10.2243 13.6717 10.8 13.6717L10.8 13.6718ZM11.9519 11.3039C12.3486 11.3039 12.6813 11.6479 12.6813 12.058C12.6813 12.4681 12.3486 12.8121 11.9519 12.8121C11.5552 12.8121 11.2224 12.4681 11.2224 12.058C11.2353 11.6346 11.5552 11.3039 11.9519 11.3039Z" fill="#454545"/>
<path d="M21.6111 12.8247C21.7263 12.5998 21.803 12.3353 21.803 12.0575C21.803 11.1711 21.0993 10.4436 20.2419 10.4436C19.3844 10.4436 18.6807 11.1711 18.6807 12.0575C18.6807 12.944 19.3844 13.6715 20.2419 13.6715H21.3935C21.9694 13.6715 22.4429 14.1609 22.4429 14.7694V17.68C22.4429 17.7593 22.379 17.8254 22.3022 17.8254C22.2254 17.8254 22.1615 17.7593 22.1615 17.68V15.1665C22.1615 14.9284 21.9696 14.73 21.7393 14.73C21.509 14.73 21.3171 14.9284 21.3171 15.1665V21.027C21.3171 21.2651 21.509 21.4635 21.7393 21.4635C21.9696 21.4635 22.1615 21.2651 22.1615 21.027V18.6722C22.2128 18.6855 22.2511 18.6855 22.3022 18.6855C22.8397 18.6855 23.2748 18.2357 23.2748 17.68V14.7695C23.2619 13.764 22.5453 12.9305 21.6111 12.8248L21.6111 12.8247ZM19.5126 12.0575C19.5126 11.6474 19.8453 11.3034 20.242 11.3034C20.6387 11.3034 20.9715 11.6474 20.9715 12.0575C20.9715 12.4676 20.6387 12.8117 20.242 12.8117C19.8452 12.8115 19.5126 12.4676 19.5126 12.0575Z" fill="#454545"/>
</svg>
