<svg width="117" height="117" viewBox="0 0 117 117" fill="none" xmlns="http://www.w3.org/2000/svg">
<g filter="url(#filter0_d_184_5282)">
<path d="M19 54.5C19 32.6848 36.6848 15 58.5 15C80.3152 15 98 32.6848 98 54.5V94H58.5C36.6848 94 19 76.3152 19 54.5Z" fill="white"/>
</g>
<path fill-rule="evenodd" clip-rule="evenodd" d="M72.3395 48.6693H68.339V44.6597C68.3368 42.8926 67.6331 41.1985 66.3828 39.9498C65.1323 38.7011 63.4373 37.9997 61.6702 38H45.667C43.8999 38 42.2055 38.7018 40.9555 39.9505C39.7053 41.1992 39.0019 42.8929 39 44.6597V65.9992C39.0009 66.3744 39.1596 66.7316 39.4375 66.9836C39.7154 67.2355 40.0862 67.3591 40.4595 67.324C40.8329 67.2886 41.1743 67.098 41.4 66.7983L46.6043 59.8605C46.854 59.5245 47.2488 59.3275 47.6674 59.3297H49.6672V63.3302C49.6694 65.0983 50.3728 66.7933 51.6233 68.0436C52.8736 69.2938 54.5686 69.9972 56.337 69.9991H70.3397C70.7582 69.9969 71.1534 70.1932 71.4047 70.5279L76.6077 77.4677C76.8334 77.7677 77.1748 77.9586 77.5484 77.994C77.9221 78.0294 78.2932 77.9058 78.5711 77.6536C78.8493 77.4016 79.008 77.0441 79.0089 76.6685V55.3291C79.007 53.5619 78.3033 51.8678 77.0528 50.6192C75.8025 49.3702 74.1075 48.6691 72.3401 48.6694L72.3395 48.6693ZM49.6672 55.329V56.6722H47.6674C46.4117 56.6707 45.2279 57.2583 44.4701 58.2594L41.6671 61.9966V44.6598C41.668 43.5992 42.0897 42.5822 42.8396 41.8324C43.5894 41.0822 44.6063 40.6605 45.667 40.6592H61.6702C62.731 40.6602 63.748 41.0819 64.4985 41.832C65.2486 42.5819 65.6706 43.5988 65.6719 44.6597V48.6693H56.3362C54.5688 48.6693 52.8741 49.3708 51.6236 50.6195C50.373 51.8682 49.6693 53.5619 49.6664 55.329H49.6672ZM76.3413 72.6659L73.5383 68.9287C72.7793 67.9276 71.5954 67.3402 70.3392 67.3415H56.3365C55.2746 67.338 54.2574 66.9138 53.5075 66.1621C52.7577 65.41 52.3366 64.3918 52.3359 63.33V55.329C52.3369 54.2685 52.7586 53.2512 53.5087 52.501C54.2586 51.7509 55.2755 51.3289 56.3364 51.3273H72.3396H72.3393C73.4001 51.3286 74.4175 51.7506 75.1676 52.501C75.9177 53.2512 76.3397 54.2682 76.341 55.329L76.3413 72.6659ZM60.3365 59.3292C60.3365 59.683 60.1961 60.0218 59.9461 60.2718C59.696 60.5219 59.3568 60.6626 59.0035 60.6626C58.6497 60.6626 58.3108 60.5219 58.0608 60.2718C57.8108 60.0218 57.6701 59.6829 57.6701 59.3292C57.6701 58.9755 57.8108 58.6366 58.0608 58.3866C58.3109 58.1366 58.6498 57.9959 59.0035 57.9959C59.3572 57.9959 59.6961 58.1365 59.9461 58.3866C60.1961 58.6366 60.3368 58.9755 60.3365 59.3292ZM65.6723 59.3292C65.6723 59.683 65.5319 60.0218 65.2819 60.2718C65.0319 60.5219 64.6927 60.6626 64.3389 60.6626C63.9855 60.6626 63.6463 60.5219 63.3963 60.2718C63.1463 60.0218 63.0059 59.6829 63.0059 59.3292C63.0059 58.9755 63.1463 58.6366 63.3963 58.3866C63.6464 58.1365 63.9856 57.9959 64.3393 57.9959C64.6927 57.9959 65.0319 58.1365 65.2819 58.3866C65.5319 58.6366 65.6723 58.9755 65.6723 59.3292ZM71.0068 59.3292C71.0068 59.683 70.8664 60.0221 70.6164 60.2722C70.3664 60.5225 70.0272 60.6629 69.6735 60.6632C69.3197 60.6632 68.9805 60.5228 68.7305 60.2728C68.4801 60.0228 68.3398 59.6836 68.3395 59.3298C68.3395 58.9761 68.4798 58.6369 68.7299 58.3869C68.9799 58.1365 69.3191 57.9962 69.6728 57.9959C70.0266 57.9959 70.3657 58.1365 70.6158 58.3863C70.8658 58.6363 71.0065 58.9755 71.0068 59.3292Z" fill="#454545"/>
<defs>
<filter id="filter0_d_184_5282" x="0" y="0" width="117" height="117" filterUnits="userSpaceOnUse" color-interpolation-filters="sRGB">
<feFlood flood-opacity="0" result="BackgroundImageFix"/>
<feColorMatrix in="SourceAlpha" type="matrix" values="0 0 0 0 0 0 0 0 0 0 0 0 0 0 0 0 0 0 127 0" result="hardAlpha"/>
<feOffset dy="4"/>
<feGaussianBlur stdDeviation="9.5"/>
<feComposite in2="hardAlpha" operator="out"/>
<feColorMatrix type="matrix" values="0 0 0 0 0 0 0 0 0 0 0 0 0 0 0 0 0 0 0.15 0"/>
<feBlend mode="normal" in2="BackgroundImageFix" result="effect1_dropShadow_184_5282"/>
<feBlend mode="normal" in="SourceGraphic" in2="effect1_dropShadow_184_5282" result="shape"/>
</filter>
</defs>
</svg>
