<svg width="45" height="45" viewBox="0 0 45 45" fill="none" xmlns="http://www.w3.org/2000/svg">
<rect x="0.5" y="0.5" width="44" height="44" rx="22" fill="white"/>
<path fill-rule="evenodd" clip-rule="evenodd" d="M16.8182 12.2727C14.3078 12.2727 12.2727 14.3078 12.2727 16.8182V28.1818C12.2727 30.6922 14.3078 32.7273 16.8182 32.7273H28.1818C30.6922 32.7273 32.7273 30.6922 32.7273 28.1818V16.8182C32.7273 14.3078 30.6922 12.2727 28.1818 12.2727H16.8182ZM10 16.8182C10 13.0526 13.0526 10 16.8182 10H28.1818C31.9474 10 35 13.0526 35 16.8182V28.1818C35 31.9474 31.9474 35 28.1818 35H16.8182C13.0526 35 10 31.9474 10 28.1818V16.8182Z" fill="#454545"/>
<path fill-rule="evenodd" clip-rule="evenodd" d="M23.0496 19.0787C22.3403 18.9735 21.6159 19.0946 20.9794 19.4249C20.3429 19.7551 19.8268 20.2777 19.5044 20.9182C19.182 21.5587 19.0698 22.2845 19.1837 22.9925C19.2976 23.7004 19.6319 24.3544 20.1389 24.8615C20.6459 25.3685 21.2999 25.7027 22.0079 25.8167C22.7158 25.9306 23.4417 25.8184 24.0822 25.496C24.7227 25.1736 25.2452 24.6575 25.5755 24.021C25.9057 23.3845 26.0269 22.6601 25.9217 21.9508C25.8144 21.2273 25.4773 20.5575 24.9601 20.0403C24.4429 19.5231 23.7731 19.1859 23.0496 19.0787ZM19.9326 17.4076C20.9934 16.8571 22.2008 16.6552 23.3829 16.8305C24.5888 17.0093 25.7052 17.5712 26.5672 18.4332C27.4291 19.2952 27.991 20.4116 28.1699 21.6174C28.3452 22.7996 28.1432 24.007 27.5928 25.0677C27.0424 26.1285 26.1715 26.9888 25.104 27.5261C24.0365 28.0634 22.8267 28.2504 21.6468 28.0605C20.4669 27.8707 19.3769 27.3136 18.5318 26.4685C17.6868 25.6235 17.1297 24.5335 16.9398 23.3535C16.75 22.1736 16.937 20.9639 17.4743 19.8964C18.0116 18.8289 18.8718 17.958 19.9326 17.4076Z" fill="#454545"/>
<path fill-rule="evenodd" clip-rule="evenodd" d="M27.6138 16.25C27.6138 15.6224 28.1225 15.1136 28.7501 15.1136H28.7615C29.3891 15.1136 29.8979 15.6224 29.8979 16.25C29.8979 16.8776 29.3891 17.3864 28.7615 17.3864H28.7501C28.1225 17.3864 27.6138 16.8776 27.6138 16.25Z" fill="#454545"/>
<rect x="0.5" y="0.5" width="44" height="44" rx="22" stroke="#DFDFDF"/>
</svg>
