<svg width="71" height="70" viewBox="0 0 71 70" fill="none" xmlns="http://www.w3.org/2000/svg">
<path d="M69.9073 35C69.9073 53.776 54.6593 69 35.8462 69C17.0332 69 1.78516 53.776 1.78516 35C1.78516 16.224 17.0332 1 35.8462 1C54.6593 1 69.9073 16.224 69.9073 35Z" stroke="#DFDFDF" stroke-width="2"/>
<path d="M49.9343 29.5825L49.2518 29.8057C48.1267 30.1731 46.8917 29.7203 46.249 28.7059C45.6063 27.6914 45.705 26.3496 46.4885 25.4433L46.9644 24.8934L43.9317 20.1075C43.5868 19.5635 43.055 19.1894 42.4339 19.054C41.8122 18.9189 41.1782 19.0394 40.6483 19.3929L19.1028 33.7631C18.0058 34.4946 17.6928 36.0063 18.4061 37.1324L21.4382 41.9183L22.1207 41.6957C23.2474 41.3283 24.4808 41.7811 25.1235 42.7955C25.7662 43.81 25.6675 45.1518 24.884 46.0581L24.4082 46.6074L27.4403 51.3934C27.7852 51.9374 28.3169 52.3118 28.9381 52.4469C29.1044 52.4832 29.2718 52.501 29.4376 52.501C29.8914 52.501 30.3355 52.3672 30.7237 52.1083L52.2698 37.7374C53.3671 37.0058 53.6798 35.4942 52.9663 34.3683L49.9343 29.5825ZM51.2452 36.1202L35.1754 46.8384L34.3157 45.4813C34.0894 45.1236 33.6237 45.0229 33.2751 45.2547C32.9268 45.487 32.8284 45.965 33.0543 46.3219L33.9139 47.679L29.7 50.4909C29.5526 50.5889 29.4044 50.5762 29.3296 50.5596C29.2543 50.5434 29.1137 50.4931 29.018 50.3423L26.7327 46.7353C27.6571 45.2288 27.6679 43.2709 26.7012 41.7445C25.7344 40.2181 23.9881 39.434 22.2686 39.6886L19.9833 36.0818C19.8377 35.8514 19.9041 35.5309 20.1281 35.3815L24.3422 32.5704L25.5316 34.448C25.6756 34.6757 25.9167 34.7993 26.163 34.7993C26.3036 34.7993 26.4455 34.7592 26.5722 34.6747C26.9205 34.4424 27.0194 33.9643 26.7931 33.6075L25.6037 31.7298L41.6728 21.0102C41.82 20.9122 41.9677 20.9246 42.0432 20.941C42.1185 20.9572 42.2591 21.0075 42.3546 21.1588L44.6399 24.7658C43.7154 26.2723 43.7047 28.2302 44.6713 29.7572C45.6385 31.2841 47.3879 32.0674 49.1035 31.8131L51.3888 35.4201C51.5354 35.65 51.4693 35.9705 51.245 36.1202L51.2452 36.1202Z" fill="#454545"/>
<path d="M28.4338 36.1945C28.2075 35.8368 27.7418 35.7355 27.3932 35.9678C27.0449 36.2001 26.946 36.6782 27.1724 37.0356L28.4743 39.0906C28.6183 39.3183 28.8593 39.4419 29.1056 39.4419C29.2463 39.4419 29.3882 39.4018 29.5149 39.3173C29.8632 39.085 29.9621 38.6069 29.7357 38.2495L28.4338 36.1945Z" fill="#454545"/>
<path d="M31.3752 40.8388C31.1489 40.481 30.6832 40.3804 30.3346 40.6121C29.9863 40.8444 29.8874 41.3225 30.1138 41.6793L31.4157 43.7344C31.5597 43.9621 31.8007 44.0856 32.0471 44.0856C32.1874 44.0856 32.3296 44.0455 32.4563 43.961C32.8046 43.7287 32.9035 43.2506 32.6771 42.8932L31.3752 40.8388Z" fill="#454545"/>
<path d="M39.254 30.4197L36.2699 28.5857L34.6417 31.7397L32.0195 34.0849L34.4402 36.6486L35.8035 39.9321L38.9275 38.3629L42.3922 38.0469L41.9024 34.5131L42.6805 31.0342L39.254 30.4197ZM40.68 36.6527L38.5169 36.85L36.5663 37.83L35.7148 35.7798L34.2033 34.1792L35.8407 32.7152L36.8575 30.7458L38.7207 31.891L40.8601 32.2746L40.3743 34.4467L40.68 36.6527Z" fill="#454545"/>
</svg>
