<svg width="45" height="45" viewBox="0 0 45 45" fill="none" xmlns="http://www.w3.org/2000/svg">
<rect x="0.5" y="0.5" width="44" height="44" rx="22" fill="white"/>
<path d="M34.9923 13.486C34.9923 13.2855 34.9392 13.0885 34.8384 12.9152C34.7376 12.7418 34.5928 12.5983 34.4185 12.499C34.2443 12.3998 34.0469 12.3484 33.8464 12.3502C33.6459 12.3519 33.4494 12.4067 33.2769 12.509C32.6117 12.9053 31.8954 13.2087 31.148 13.411C30.0812 12.4957 28.7206 11.9948 27.3149 12C25.773 12.0019 24.2922 12.6029 23.185 13.6761C22.0779 14.7493 21.4312 16.2107 21.3814 17.7518C18.3411 17.2671 15.5856 15.6803 13.6404 13.294C13.5231 13.152 13.3735 13.0402 13.2041 12.968C13.0347 12.8958 12.8504 12.8654 12.6668 12.8793C12.4832 12.8945 12.3061 12.9542 12.1507 13.0532C11.9953 13.1521 11.8664 13.2874 11.775 13.4474C11.3064 14.2652 11.0373 15.182 10.9895 16.1234C10.9417 17.0647 11.1166 18.0041 11.5 18.8652L11.4978 18.8663C11.3251 18.9724 11.1826 19.1211 11.0839 19.2982C10.9852 19.4752 10.9337 19.6747 10.9343 19.8774C10.9325 20.0441 10.9427 20.2108 10.965 20.3761C11.081 21.8053 11.7143 23.1431 12.7463 24.1387C12.6763 24.2722 12.6336 24.4183 12.6207 24.5685C12.6078 24.7187 12.625 24.87 12.6713 25.0134C13.1212 26.4155 14.078 27.5992 15.3547 28.333C14.0575 28.8345 12.6569 29.0092 11.2762 28.8419C11.0208 28.8101 10.7622 28.8661 10.5427 29.0005C10.3232 29.1349 10.1559 29.3399 10.0681 29.5818C9.98033 29.8238 9.97731 30.0884 10.0596 30.3323C10.1418 30.5762 10.3044 30.7849 10.5208 30.9243C12.8953 32.4534 15.6601 33.2663 18.4845 33.2657C21.6872 33.3017 24.8122 32.2783 27.3732 30.3547C29.9341 28.431 31.7876 25.7149 32.6453 22.6289C33.0462 21.2847 33.2509 19.8896 33.253 18.4869L33.2519 18.2597C33.8451 17.6198 34.3046 16.868 34.6035 16.0483C34.9023 15.2286 35.0345 14.3575 34.9923 13.486ZM31.2366 17.135C31.0487 17.3567 30.9535 17.6423 30.9707 17.9325C30.9821 18.1199 30.981 18.3085 30.981 18.4869C30.9785 19.672 30.8048 20.8505 30.4652 21.9859C29.765 24.612 28.2038 26.9271 26.0315 28.5605C23.8593 30.1939 21.2017 31.0511 18.4845 30.9947C17.5087 30.9949 16.5364 30.8801 15.5875 30.6528C16.7978 30.2625 17.9293 29.6609 18.9298 28.876C19.1143 28.731 19.2493 28.5323 19.3163 28.3075C19.3834 28.0826 19.3791 27.8424 19.3042 27.6201C19.2292 27.3977 19.0872 27.204 18.8977 27.0655C18.7082 26.9271 18.4805 26.8508 18.2459 26.847C17.3015 26.8322 16.3998 26.4514 15.7307 25.7848C15.9003 25.753 16.0688 25.7132 16.2362 25.6655C16.4816 25.5958 16.6964 25.4454 16.846 25.2387C16.9955 25.032 17.0712 24.781 17.0607 24.526C17.0502 24.2711 16.9542 24.0272 16.7881 23.8334C16.6221 23.6397 16.3957 23.5075 16.1453 23.4582C15.5972 23.3499 15.0814 23.1167 14.6381 22.7766C14.1947 22.4365 13.8358 21.9988 13.5892 21.4974C13.7946 21.5254 14.0012 21.5429 14.2084 21.5496C14.4545 21.5537 14.6956 21.4792 14.8966 21.3371C15.0976 21.1949 15.2481 20.9924 15.3262 20.759C15.4013 20.5235 15.3975 20.27 15.3155 20.037C15.2335 19.8039 15.0777 19.6039 14.8718 19.4673C14.3719 19.1345 13.9623 18.6829 13.6798 18.1529C13.3973 17.623 13.2506 17.0312 13.253 16.4306C13.253 16.3556 13.2552 16.2795 13.2598 16.2057C15.8062 18.5807 19.1092 19.9808 22.5867 20.1591C22.7623 20.1658 22.9371 20.1324 23.0979 20.0616C23.2587 19.9907 23.4013 19.8842 23.5149 19.7501C23.6274 19.6152 23.707 19.4561 23.7477 19.2852C23.7883 19.1143 23.7887 18.9363 23.7489 18.7652C23.6838 18.4939 23.6507 18.216 23.6501 17.937C23.6513 16.9654 24.0378 16.0339 24.7248 15.3469C25.4118 14.6598 26.3433 14.2733 27.3149 14.2721C27.815 14.2707 28.3099 14.3729 28.7684 14.5723C29.2269 14.7718 29.6391 15.0641 29.979 15.4309C30.11 15.5719 30.2749 15.677 30.4581 15.7363C30.6412 15.7956 30.8365 15.807 31.0253 15.7694C31.492 15.6787 31.952 15.5565 32.4021 15.4036C32.0952 16.0317 31.703 16.6143 31.2366 17.135Z" fill="#454545"/>
<rect x="0.5" y="0.5" width="44" height="44" rx="22" stroke="#DFDFDF"/>
</svg>
