<svg width="45" height="45" viewBox="0 0 45 45" fill="none" xmlns="http://www.w3.org/2000/svg">
<rect x="0.5" y="0.5" width="44" height="44" rx="22" fill="white"/>
<path fill-rule="evenodd" clip-rule="evenodd" d="M19.9158 12.602C15.8737 13.6544 12.8045 17.1173 12.3351 21.3637H16.8751C17.1299 18.2237 18.1809 15.2095 19.9158 12.602ZM25.0841 12.602C26.819 15.2095 27.87 18.2237 28.1248 21.3637H32.6649C32.1955 17.1173 29.1262 13.6543 25.0841 12.602ZM25.8436 21.3637C25.5581 18.2807 24.3973 15.3434 22.5 12.8989C20.6026 15.3434 19.4418 18.2807 19.1563 21.3637H25.8436ZM19.1563 23.6365H25.8436C25.5582 26.7197 24.3974 29.6571 22.5 32.1017C20.6025 29.6571 19.4417 26.7197 19.1563 23.6365ZM16.875 23.6365H12.3352C12.8046 27.8826 15.8735 31.3453 19.9153 32.3978C18.1806 29.7904 17.1298 26.7764 16.875 23.6365ZM25.0846 32.3979C26.8193 29.7904 27.8701 26.7764 28.1249 23.6365H32.6648C32.1954 27.8827 29.1264 31.3454 25.0846 32.3979ZM22.5276 35C29.4172 34.9851 34.998 29.3964 35 22.5038V22.5001V22.5C35 15.5964 29.4036 10 22.5 10C15.5964 10 10 15.5964 10 22.5C10 29.3943 15.5815 34.985 22.4723 35C22.4815 35.0002 22.4907 35.0003 22.5 35.0003C22.5092 35.0003 22.5184 35.0002 22.5276 35Z" fill="#454545"/>
<rect x="0.5" y="0.5" width="44" height="44" rx="22" stroke="#DFDFDF"/>
</svg>
