<svg width="24" height="26" viewBox="0 0 24 26" fill="none" xmlns="http://www.w3.org/2000/svg">
<path fill-rule="evenodd" clip-rule="evenodd" d="M12.7367 0.739371C12.3034 0.42021 11.6966 0.42021 11.2633 0.739371L0.463271 8.69387C0.170967 8.90916 0 9.24019 0 9.59086V22.0908C0 22.9949 0.379285 23.862 1.05442 24.5014C1.72955 25.1407 2.64522 25.4999 3.6 25.4999H8.38925C8.39387 25.4999 8.39849 25.4999 8.40312 25.4999C8.40776 25.4999 8.41238 25.4999 8.417 25.4999H15.5893C15.5939 25.4999 15.5985 25.4999 15.6031 25.4999C15.6078 25.4999 15.6124 25.4999 15.617 25.4999H20.4C21.3548 25.4999 22.2705 25.1407 22.9456 24.5014C23.6207 23.862 24 22.9949 24 22.0908V9.59086C24 9.24019 23.829 8.90916 23.5367 8.69387L12.7367 0.739371ZM16.8031 23.2271H20.4C20.7183 23.2271 21.0235 23.1074 21.2485 22.8943C21.4736 22.6812 21.6 22.3922 21.6 22.0908V10.1466L12 3.07596L2.4 10.1466V22.0908C2.4 22.3922 2.52643 22.6812 2.75147 22.8943C2.97652 23.1074 3.28174 23.2271 3.6 23.2271H7.20312V13C7.20312 12.3724 7.74038 11.8636 8.40312 11.8636H15.6031C16.2659 11.8636 16.8031 12.3724 16.8031 13V23.2271ZM9.60312 23.2271H14.4031V14.1364H9.60312V23.2271Z" fill="#454545"/>
</svg>
