<svg width="25" height="26" viewBox="0 0 25 26" fill="none" xmlns="http://www.w3.org/2000/svg">
<path d="M12.5 0.5C9.18489 0.5 6.00518 1.81703 3.66118 4.16118C1.31703 6.50552 0 9.68489 0 13C0 16.3151 1.31703 19.4948 3.66118 21.8388C6.00552 24.183 9.18489 25.5 12.5 25.5C15.8151 25.5 18.9948 24.183 21.3388 21.8388C23.683 19.4945 25 16.3151 25 13C24.996 9.68601 23.6779 6.50859 21.3344 4.16556C18.9911 1.82219 15.8136 0.503994 12.5 0.5ZM12.5 23.2275C9.78757 23.2275 7.18619 22.15 5.26832 20.232C3.35032 18.314 2.2728 15.7126 2.2728 13.0003C2.2728 10.288 3.35032 7.68648 5.26832 5.76862C7.18633 3.85061 9.78767 2.77309 12.5 2.77309C15.2123 2.77309 17.8138 3.85061 19.7317 5.76862C21.6497 7.68663 22.7272 10.288 22.7272 13.0003C22.7242 15.7118 21.6457 18.3112 19.7285 20.229C17.811 22.1463 15.2114 23.2248 12.4997 23.2278L12.5 23.2275Z" fill="white"/>
<path d="M12.5029 9.59101H10.2301C9.82413 9.59101 9.44898 9.80769 9.24599 10.1593C9.043 10.5108 9.043 10.944 9.24599 11.2956C9.44898 11.6471 9.82413 11.8638 10.2301 11.8638H11.3664V19.8182H11.3666C11.3666 20.2242 11.5831 20.5993 11.9346 20.8023C12.2862 21.0053 12.7196 21.0053 13.0711 20.8023C13.4227 20.5993 13.6392 20.2242 13.6392 19.8182V10.7271C13.6392 10.4258 13.5195 10.1368 13.3065 9.92374C13.0934 9.71048 12.8043 9.59082 12.5029 9.59082L12.5029 9.59101Z" fill="white"/>
<path d="M13.6398 7.31819C13.6398 7.9458 13.1311 8.45468 12.5035 8.45468C11.8759 8.45468 11.3672 7.9458 11.3672 7.31819C11.3672 6.69057 11.8759 6.18188 12.5035 6.18188C13.1311 6.18188 13.6398 6.69057 13.6398 7.31819Z" fill="white"/>
</svg>
